# xmcd
#
# Track frame offsets:
#	150
#	18206
#	30246
#	46443
#	65934
#	82009
#	101484
#	119396
#	133252
#	148028
#	167435
#	185505
#	197639
#	213785
#	233353
#	249549
#	269309
#	287345
#	300531
#	315038
#
# Disc length: 4458 seconds
#
# Revision: 0
# Processed by: cddbd v1.5.2PL0 Copyright (c) Steve Scherf et al.
# Submitted via: audiograbber 1.83.01
#
DISCID=0a116814
DTITLE=Kenny Rogers - pocket songs cdg 1043
DYEAR=1900
DGENRE=
TTITLE0=Lady
TTITLE1=Reuban James
TTITLE2=the gambler
TTITLE3=She believes in me
TTITLE4=Lucille
TTITLE5=Coward of the county
TTITLE6=You decorated my life
TTITLE7=Ruby,Don't take you gun to town
TTITLE8=Daytime lovers,nightime friends
TTITLE9=While the felling 's good
TTITLE10=Lady
TTITLE11=Reuban James
TTITLE12=The Gambler
TTITLE13=She blieves in me
TTITLE14=Lucille
TTITLE15=Coward of the county
TTITLE16=You decorated my life
TTITLE17=Ruby, Don't take your guns to town
TTITLE18=Daytime lovers' Nighttime friends
TTITLE19=While the feeling's good
EXTD=
EXTT0=
EXTT1=
EXTT2=
EXTT3=
EXTT4=
EXTT5=
EXTT6=
EXTT7=
EXTT8=
EXTT9=
EXTT10=
EXTT11=
EXTT12=
EXTT13=
EXTT14=
EXTT15=
EXTT16=
EXTT17=
EXTT18=
EXTT19=
PLAYORDER=
